<?xml version="1.0" encoding="UTF-8" standalone="no"?>
<!-- Created with Inkscape (http://www.inkscape.org/) -->

<svg
   xmlns:dc="http://purl.org/dc/elements/1.1/"
   xmlns:cc="http://creativecommons.org/ns#"
   xmlns:rdf="http://www.w3.org/1999/02/22-rdf-syntax-ns#"
   xmlns:svg="http://www.w3.org/2000/svg"
   xmlns="http://www.w3.org/2000/svg"
   xmlns:sodipodi="http://sodipodi.sourceforge.net/DTD/sodipodi-0.dtd"
   xmlns:inkscape="http://www.inkscape.org/namespaces/inkscape"
   version="1.1"
   id="svg3756"
   xml:space="preserve"
   width="85.333336"
   height="85.333336"
   viewBox="0 0 85.333336 85.333336"
   sodipodi:docname="samples-logo.svg"
   inkscape:version="0.92.2 5c3e80d, 2017-08-06"><metadata
     id="metadata3762"><rdf:RDF><cc:Work
         rdf:about=""><dc:format>image/svg+xml</dc:format><dc:type
           rdf:resource="http://purl.org/dc/dcmitype/StillImage" /><dc:title></dc:title></cc:Work></rdf:RDF></metadata><defs
     id="defs3760"><clipPath
       clipPathUnits="userSpaceOnUse"
       id="clipPath3772"><path
         d="M 0,64 H 64 V 0 H 0 Z"
         id="path3770"
         inkscape:connector-curvature="0" /></clipPath><clipPath
       clipPathUnits="userSpaceOnUse"
       id="clipPath3784"><path
         d="M 12,50 H 52 V 10 H 12 Z"
         id="path3782"
         inkscape:connector-curvature="0" /></clipPath><clipPath
       clipPathUnits="userSpaceOnUse"
       id="clipPath3804"><path
         d="m 24,50 h 4 V 10 h -4 z"
         id="path3802"
         inkscape:connector-curvature="0" /></clipPath><clipPath
       clipPathUnits="userSpaceOnUse"
       id="clipPath3818"><path
         d="M 12,34 H 52 V 30 H 12 Z"
         id="path3816"
         inkscape:connector-curvature="0" /></clipPath><clipPath
       clipPathUnits="userSpaceOnUse"
       id="clipPath3836"><path
         d="M 14,43.8492 H 37.9143 V 20.0811 H 14 Z"
         id="path3834"
         inkscape:connector-curvature="0" /></clipPath></defs><sodipodi:namedview
     pagecolor="#ffffff"
     bordercolor="#666666"
     borderopacity="1"
     objecttolerance="10"
     gridtolerance="10"
     guidetolerance="10"
     inkscape:pageopacity="0"
     inkscape:pageshadow="2"
     inkscape:window-width="1920"
     inkscape:window-height="1151"
     id="namedview3758"
     showgrid="false"
     inkscape:zoom="10.992187"
     inkscape:cx="42.666668"
     inkscape:cy="42.666668"
     inkscape:window-x="0"
     inkscape:window-y="1"
     inkscape:window-maximized="1"
     inkscape:current-layer="g3764" /><g
     id="g3764"
     inkscape:groupmode="layer"
     inkscape:label="Elegant_circle-icons"
     transform="matrix(1.3333333,0,0,-1.3333333,0,85.333333)"><g
       id="g3766"><g
         id="g3768"
         clip-path="url(#clipPath3772)"><g
           id="g3774"
           transform="translate(64,32)"><path
             d="m 0,0 c 0,-17.673 -14.327,-32 -32,-32 -17.673,0 -32,14.327 -32,32 0,17.673 14.327,32 32,32 C -14.327,32 0,17.673 0,0"
             style="fill:#76c2af;fill-opacity:1;fill-rule:nonzero;stroke:none"
             id="path3776"
             inkscape:connector-curvature="0" /></g><g
           id="g3778"><g
             id="g3780" /><g
             id="g3792"><g
               clip-path="url(#clipPath3784)"
               id="g3790"
               style="opacity:0.19999701"><g
                 transform="translate(52,14)"
                 id="g3788"><path
                   d="m 0,0 c 0,-2.209 -1.791,-4 -4,-4 h -32 c -2.209,0 -4,1.791 -4,4 v 32 c 0,2.209 1.791,4 4,4 h 32 c 2.209,0 4,-1.791 4,-4 z"
                   style="fill:#231f20;fill-opacity:1;fill-rule:nonzero;stroke:none"
                   id="path3786"
                   inkscape:connector-curvature="0" /></g></g></g></g><g
           id="g3794"
           transform="translate(52,16)"><path
             d="m 0,0 c 0,-2.209 -1.791,-4 -4,-4 h -32 c -2.209,0 -4,1.791 -4,4 v 32 c 0,2.209 1.791,4 4,4 h 32 c 2.209,0 4,-1.791 4,-4 z"
             style="fill:#c75c5c;fill-opacity:1;fill-rule:nonzero;stroke:none"
             id="path3796"
             inkscape:connector-curvature="0" /></g><g
           id="g3798"><g
             id="g3800" /><g
             id="g3810"><g
               clip-path="url(#clipPath3804)"
               id="g3808"
               style="opacity:0.19999701"><path
                 d="m 28,10 h -4 v 40 h 4 z"
                 style="fill:#231f20;fill-opacity:1;fill-rule:nonzero;stroke:none"
                 id="path3806"
                 inkscape:connector-curvature="0" /></g></g></g><g
           id="g3812"><g
             id="g3814" /><g
             id="g3824"><g
               clip-path="url(#clipPath3818)"
               id="g3822"
               style="opacity:0.19999701"><path
                 d="M 52,30 H 12 v 4 h 40 z"
                 style="fill:#231f20;fill-opacity:1;fill-rule:nonzero;stroke:none"
                 id="path3820"
                 inkscape:connector-curvature="0" /></g></g></g><path
           d="m 28,12 h -4 v 40 h 4 z"
           style="fill:#f5cf87;fill-opacity:1;fill-rule:nonzero;stroke:none"
           id="path3826"
           inkscape:connector-curvature="0" /><path
           d="M 52,32 H 12 v 4 h 40 z"
           style="fill:#f5cf87;fill-opacity:1;fill-rule:nonzero;stroke:none"
           id="path3828"
           inkscape:connector-curvature="0" /><g
           id="g3830"><g
             id="g3832" /><g
             id="g3844"><g
               clip-path="url(#clipPath3836)"
               id="g3842"
               style="opacity:0.19999701"><g
                 transform="translate(33.9113,35.0031)"
                 id="g3840"><path
                   d="m 0,0 c -0.762,-0.762 -2.111,-1.073 -4.657,-1.073 -0.408,0 -0.823,0.007 -1.243,0.016 -0.057,2.612 -0.021,4.822 1.057,5.9 0.647,0.647 1.507,1.003 2.421,1.003 C -1.507,5.846 -0.647,5.49 0,4.843 1.335,3.508 1.335,1.335 0,0 m -11.065,-10.919 c -0.647,-0.647 -1.507,-1.003 -2.422,-1.003 -0.914,0 -1.774,0.356 -2.421,1.003 -1.335,1.335 -1.335,3.508 0,4.843 0.762,0.762 2.111,1.073 4.656,1.073 0.409,0 0.824,-0.007 1.244,-0.016 0.057,-2.611 0.021,-4.822 -1.057,-5.9 M 2.121,6.964 c -1.254,1.255 -2.898,1.882 -4.543,1.882 -1.644,0 -3.288,-0.627 -4.542,-1.882 -1.831,-1.83 -1.991,-4.548 -1.944,-7.547 -0.631,0.291 -4.858,2.38 -5.277,6.186 -0.09,0.824 -0.835,1.415 -1.655,1.328 -0.823,-0.091 -1.417,-0.832 -1.327,-1.656 0.392,-3.564 2.86,-5.949 4.796,-7.3 -2.237,-0.087 -4.222,-0.493 -5.659,-1.929 -2.509,-2.509 -2.509,-6.577 0,-9.086 1.255,-1.255 2.899,-1.882 4.543,-1.882 1.645,0 3.289,0.627 4.543,1.882 1.721,1.72 1.966,4.225 1.951,7.01 0.102,-0.108 0.215,-0.207 0.351,-0.283 0.047,-0.026 4.647,-2.655 4.647,-6.774 0,-0.828 0.672,-1.5 1.5,-1.5 0.829,0 1.5,0.672 1.5,1.5 0,4.851 -4.008,7.978 -5.575,9.016 2.656,0.006 5.037,0.295 6.691,1.95 2.509,2.509 2.509,6.576 0,9.085"
                   style="fill:#231f20;fill-opacity:1;fill-rule:nonzero;stroke:none"
                   id="path3838"
                   inkscape:connector-curvature="0" /></g></g></g></g><g
           id="g3846"
           transform="translate(31.4897,45.8492)"><path
             d="m 0,0 c -1.644,0 -3.288,-0.627 -4.543,-1.882 -2.509,-2.509 -1.882,-6.684 -1.882,-10.967 1.428,0 2.844,-0.07 4.19,-0.07 2.692,0 5.105,0.279 6.778,1.952 2.509,2.509 2.509,6.576 0,9.085 C 3.288,-0.627 1.644,0 0,0 m 0,-3 c 0.915,0 1.775,-0.356 2.422,-1.003 1.335,-1.335 1.335,-3.508 0,-4.843 -0.762,-0.762 -2.112,-1.073 -4.657,-1.073 -0.408,0 -0.823,0.007 -1.243,0.016 -0.058,2.612 -0.021,4.822 1.056,5.9 C -1.775,-3.356 -0.915,-3 0,-3"
             style="fill:#f5cf87;fill-opacity:1;fill-rule:nonzero;stroke:none"
             id="path3848"
             inkscape:connector-curvature="0" /></g><g
           id="g3850"
           transform="translate(22.6596,35)"><path
             d="m 0,0 c -2.692,0 -5.105,-0.279 -6.778,-1.951 -2.509,-2.509 -2.509,-6.577 0,-9.086 1.255,-1.255 2.899,-1.882 4.543,-1.882 1.644,0 3.288,0.627 4.543,1.882 C 4.817,-8.528 4.19,-4.353 4.19,-0.07 2.762,-0.07 1.346,0 0,0 m 0,-3 c 0.408,0 0.823,-0.007 1.243,-0.016 0.058,-2.612 0.021,-4.822 -1.056,-5.9 -0.647,-0.647 -1.507,-1.003 -2.422,-1.003 -0.915,0 -1.775,0.356 -2.422,1.003 -1.335,1.335 -1.335,3.508 0,4.843 C -3.895,-3.311 -2.546,-3 0,-3"
             style="fill:#f5cf87;fill-opacity:1;fill-rule:nonzero;stroke:none"
             id="path3852"
             inkscape:connector-curvature="0" /></g><g
           id="g3854"
           transform="translate(33.417,22.417)"><path
             d="m 0,0 c -0.828,0 -1.5,0.672 -1.5,1.5 0,4.118 -4.601,6.747 -4.647,6.772 -0.721,0.406 -0.981,1.318 -0.579,2.041 0.403,0.721 1.312,0.983 2.036,0.583 C -4.437,10.755 1.5,7.399 1.5,1.5 1.5,0.672 0.828,0 0,0"
             style="fill:#f5cf87;fill-opacity:1;fill-rule:nonzero;stroke:none"
             id="path3856"
             inkscape:connector-curvature="0" /></g><g
           id="g3858"
           transform="translate(24.502,33.5)"><path
             d="m 0,0 c -0.192,0 -0.389,0.037 -0.578,0.116 -0.267,0.112 -6.534,2.798 -7.18,8.662 -0.091,0.824 0.504,1.565 1.327,1.656 0.822,0.088 1.565,-0.504 1.656,-1.328 C -4.322,4.98 0.531,2.904 0.58,2.884 1.344,2.564 1.704,1.686 1.385,0.921 1.145,0.346 0.587,0 0,0"
             style="fill:#f5cf87;fill-opacity:1;fill-rule:nonzero;stroke:none"
             id="path3860"
             inkscape:connector-curvature="0" /></g></g></g></g></svg>